PathFileType	4	(X/Y/Z)	C:\Users\Basilio\Documents\Thesis Gigler\squatting_fais\c3dfiles\041\SJ_pre5\markers_experimental.trc
DataRate	CameraRate	NumFrames	NumMarkers	Units	OrigDataRate	OrigDataStartFrame	OrigNumFrames
200.000000	200.000000	4	62	mm	200.000000	188	1505
Frame#	Time	FHD			LBHD			RBHD			C7			T10			CLAV			LSHO			LUUPA			LMUPA			LDUPA			LLEP			LMEP			LRAD			LUL			LRFIN			RSHO			RUPA1			RMUPA			RDUPA			RLEP			RMEP			RRAD			RUL			RUFIN			LASI			RASI			USACR			LSACR			RSACR			LTHI1			LTHI2			LTHI3			LTHI4			LLFC			LMFC			LTIB1			LTIB2			LTIB3			LTIB4			LLMAL			LMMAL			LHEE			LMT1			LMT2			LMT5			RTHI			RTHI2			RTHI3			RTHI4			RLFC			RMFC			RTIB1			RTIB2			RTIB3			RTIB4			RLMAL			RMMAL			RHEE			RMT1			RMT2			RMT5			*61			
		X1	Y1	Z1	X2	Y2	Z2	X3	Y3	Z3	X4	Y4	Z4	X5	Y5	Z5	X6	Y6	Z6	X7	Y7	Z7	X8	Y8	Z8	X9	Y9	Z9	X10	Y10	Z10	X11	Y11	Z11	X12	Y12	Z12	X13	Y13	Z13	X14	Y14	Z14	X15	Y15	Z15	X16	Y16	Z16	X17	Y17	Z17	X18	Y18	Z18	X19	Y19	Z19	X20	Y20	Z20	X21	Y21	Z21	X22	Y22	Z22	X23	Y23	Z23	X24	Y24	Z24	X25	Y25	Z25	X26	Y26	Z26	X27	Y27	Z27	X28	Y28	Z28	X29	Y29	Z29	X30	Y30	Z30	X31	Y31	Z31	X32	Y32	Z32	X33	Y33	Z33	X34	Y34	Z34	X35	Y35	Z35	X36	Y36	Z36	X37	Y37	Z37	X38	Y38	Z38	X39	Y39	Z39	X40	Y40	Z40	X41	Y41	Z41	X42	Y42	Z42	X43	Y43	Z43	X44	Y44	Z44	X45	Y45	Z45	X46	Y46	Z46	X47	Y47	Z47	X48	Y48	Z48	X49	Y49	Z49	X50	Y50	Z50	X51	Y51	Z51	X52	Y52	Z52	X53	Y53	Z53	X54	Y54	Z54	X55	Y55	Z55	X56	Y56	Z56	X57	Y57	Z57	X58	Y58	Z58	X59	Y59	Z59	X60	Y60	Z60	X61	Y61	Z61	X62	Y62	Z62	

189	0.9400000000000001	-118.3103408813477	1597.845336914063	-955.8239746093752	-288.5938415527344	1676.507690429688	-1033.479125976563	-273.1689758300782	1666.006958007813	-880.2352294921877	-426.417449951172	1532.226440429688	-971.7046508789065	-483.1451416015626	1207.798461914063	-969.0225830078127	-289.1896972656251	1448.366577148438	-966.5421142578127	-364.2242736816407	1512.078002929688	-1137.848266601563	-427.3634643554689	1379.927734375	-1278.211303710938	-407.415985107422	1334.592651367188	-1276.415405273438	-451.1455078125001	1328.948486328125	-1319.076782226563	-463.0006713867189	1282.655151367188	-1343.144165039063	-521.1425170898439	1245.966064453125	-1281.292724609375	-384.2435302734376	1087.355224609375	-1175.345336914063	-369.3642272949219	1045.593139648438	-1235.917602539063	-337.4444580078126	1065.993408203125	-1136.535766601563	-368.7121887207032	1512.48388671875	-803.6179809570315	-436.1711425781251	1373.482055664063	-641.0651245117189	-394.1875915527345	1345.373046875	-646.4670410156251	-419.2841796875001	1314.52490234375	-604.6532592773439	-414.9658203125001	1266.747680664063	-586.4045410156251	-490.2827453613282	1241.033447265625	-636.6760864257814	-400.0809326171876	1065.1767578125	-748.1160888671876	-358.8426208496094	1052.363647460938	-792.775085449219	-369.8858947753907	1023.430297851563	-691.4188232421876	-305.5689392089844	1008.166015625	-1069.343994140625	-321.2707214355469	998.254089355469	-853.4257812500002	-490.9037475585939	1093.333740234375	-971.5496826171877	-505.7250366210939	1069.073852539063	-999.4263916015627	-513.4171142578126	1068.459228515625	-946.147644042969	-433.6388549804689	824.605163574219	-1172.793212890625	-401.7851562500001	746.3994140625001	-1178.644287109375	-354.5919494628907	746.3483886718751	-1166.209716796875	-433.4256286621095	693.8227539062501	-1175.61572265625	-422.8598022460939	514.1206054687501	-1184.160400390625	-420.001190185547	477.8959350585939	-1069.94189453125	-386.7042236328126	319.3056640625001	-1157.837524414063	-432.3959960937501	284.9819641113282	-1227.901000976563	-395.6875000000001	278.6651000976563	-1201.2578125	-392.8728027343751	196.3634796142579	-1181.514770507813	-446.0026245117189	102.5637283325196	-1235.559326171875	-407.0293884277345	103.0765914916992	-1153.533325195313	-501.4711914062501	52.78331756591798	-1204.114379882813	-285.6206970214844	60.71835327148439	-1175.133544921875	-278.5433654785157	60.15075302124025	-1219.474365234375	-318.0212707519532	35.43821716308594	-1276.255126953125	-456.695037841797	764.9627685546876	-766.3748168945314	-421.4490051269532	708.7612915039064	-755.9004516601564	-387.9985656738282	708.6904907226564	-757.8502197265626	-451.2224121093751	630.5243530273439	-767.4304199218751	-449.9442443847657	504.3380737304689	-753.4872436523439	-424.517059326172	472.1836853027345	-866.7673339843752	-406.4067382812501	341.2772216796876	-737.3490600585939	-483.0770568847657	261.0437316894532	-718.8581542968751	-435.8924865722657	262.2569885253907	-714.7221679687501	-407.7694702148439	213.3570861816407	-734.4294433593751	-452.917449951172	94.60470581054689	-710.2130737304689	-418.7215270996095	102.5004653930664	-787.2364501953127	-503.0150756835939	49.50585556030275	-758.0985107421876	-285.2632751464844	53.56678009033205	-750.2059936523439	-286.7640075683594	58.11073684692384	-698.0291137695314	-333.0405273437501	36.6704216003418	-651.3160400390626	-4217.063476562501	853.1752929687502	-3944.776611328126	
190	0.9450000000000001	-118.1622314453125	1597.859252929688	-955.7590332031252	-288.5390930175782	1676.512573242188	-1033.411743164063	-273.1402893066407	1665.989990234375	-880.1270141601565	-426.3037719726564	1532.235107421875	-971.7034912109377	-483.0474243164064	1207.7763671875	-969.0435791015627	-289.2512512207032	1448.237060546875	-966.5109863281252	-364.1697387695313	1512.119018554688	-1137.793334960938	-427.2563781738282	1379.962280273438	-1278.244140625	-407.1758728027345	1334.639526367188	-1276.386596679688	-450.9753417968751	1328.991943359375	-1319.05859375	-462.8400268554689	1282.714599609375	-1343.134521484375	-520.9965209960939	1246.01123046875	-1281.396240234375	-384.129852294922	1087.382568359375	-1175.39404296875	-369.1654052734376	1045.610595703125	-1235.988037109375	-337.4570617675782	1066.059814453125	-1136.485107421875	-368.6308593750001	1512.443481445313	-803.5544433593752	-436.0603637695314	1373.425659179688	-641.0726928710939	-394.1256408691407	1345.331665039063	-646.4530029296876	-419.1220703125001	1314.44189453125	-604.6422729492189	-414.9177551269532	1266.74267578125	-586.4142456054689	-490.1416625976564	1240.969970703125	-636.6549072265626	-399.9842224121095	1065.148681640625	-748.1614990234376	-358.7411193847657	1052.329467773438	-792.778503417969	-369.8105468750001	1023.416931152344	-691.4111938476564	-305.4510498046876	1008.130004882813	-1069.3330078125	-321.1777343750001	998.2092285156252	-853.5205688476565	-490.8268432617189	1093.374755859375	-971.559020996094	-505.6470642089845	1069.112670898438	-999.4788208007815	-513.3181152343751	1068.45458984375	-946.2058105468752	-433.5351562500001	824.6275634765627	-1172.878784179688	-401.7058105468751	746.3517456054689	-1178.630981445313	-354.3494262695313	746.4357910156251	-1166.489135742188	-433.3599853515626	693.8782958984376	-1175.646362304688	-422.786346435547	514.1384277343751	-1184.196899414063	-419.9067993164064	477.8979797363282	-1069.925048828125	-386.678680419922	319.2614135742188	-1157.870361328125	-432.3862609863282	284.9659118652344	-1227.899291992188	-395.659881591797	278.6749877929688	-1201.288330078125	-392.7775878906251	196.3562774658204	-1181.591918945313	-446.0025634765626	102.6008529663086	-1235.563598632813	-407.0740966796876	103.0669784545899	-1153.534301757813	-501.4334106445314	52.76696777343751	-1204.12255859375	-285.6278381347657	60.75447082519533	-1175.092407226563	-278.5255737304688	60.1836280822754	-1219.465698242188	-318.0685119628907	35.4397201538086	-1276.25634765625	-456.6356811523439	764.9705810546876	-766.3743286132814	-421.357391357422	708.6857299804689	-756.0560302734376	-387.9362182617189	708.2734985351564	-758.5567016601564	-451.1301269531251	630.4929199218751	-767.4381103515626	-449.8931579589845	504.356903076172	-753.5035400390626	-424.074188232422	471.9810791015626	-866.8697509765627	-406.3441772460939	341.2830810546876	-737.3591918945314	-483.0464782714845	261.0517883300782	-718.8518676757814	-435.8011169433595	262.3018188476563	-714.7559814453126	-407.6748657226564	213.3528442382813	-734.5221557617189	-452.9068908691407	94.59415435791017	-710.2396240234376	-418.686981201172	102.4523391723633	-787.266784667969	-502.9985961914064	49.52544403076173	-758.0692138671876	-285.2549438476563	53.5677833557129	-750.2057495117189	-286.7565612792969	58.07020187377931	-698.0642700195314	-333.0643310546876	36.68272399902344	-651.3256835937501	-4216.645507812501	853.1499633789065	-3944.636962890626	
191	0.9500000000000001	-118.1431121826172	1597.925537109375	-955.611511230469	-288.4924621582032	1676.557250976563	-1033.3251953125	-273.1212768554688	1666.000244140625	-880.043395996094	-426.2847595214845	1532.23486328125	-971.6397705078127	-482.9678039550782	1207.736328125	-969.067321777344	-289.1818542480469	1448.353759765625	-966.4795532226565	-364.1097717285157	1512.185424804688	-1137.770141601563	-427.0882263183595	1380.03857421875	-1278.228515625	-407.0742492675782	1334.671875	-1276.379028320313	-450.8713989257814	1329.064086914063	-1319.053955078125	-462.662567138672	1282.793823242188	-1343.20361328125	-520.8889160156251	1246.057250976563	-1281.41650390625	-383.8559875488282	1087.380493164063	-1175.5009765625	-368.9956359863282	1045.654663085938	-1236.0615234375	-337.3340454101563	1066.052734375	-1136.481567382813	-368.5650329589844	1512.397216796875	-803.5311279296877	-435.9946594238282	1373.383422851563	-641.0284423828126	-394.051239013672	1345.250610351563	-646.3836669921876	-419.0576171875001	1314.380249023438	-604.6138916015626	-414.8382568359376	1266.711547851563	-586.4254760742189	-490.063446044922	1240.906005859375	-636.6444091796876	-399.8936462402345	1065.074096679688	-748.1813354492189	-358.6533203125001	1052.320922851563	-792.8484497070315	-369.6340026855469	1023.347045898438	-691.4733886718751	-305.3855590820313	1008.116638183594	-1069.43212890625	-321.0722961425782	998.166931152344	-853.5349731445315	-490.7297668457032	1093.398681640625	-971.6003417968752	-505.5335998535157	1069.128051757813	-999.5080566406252	-513.2580566406251	1068.483276367188	-946.2008056640627	-433.4952697753907	824.6482543945315	-1172.920532226563	-401.6240539550782	746.3535156250001	-1178.690673828125	-354.5053100585938	746.3348388671876	-1166.2421875	-433.3067932128907	693.8773193359376	-1175.638916015625	-422.7115783691407	514.1586914062501	-1184.220092773438	-419.8684387207032	477.8935546875001	-1069.994018554688	-386.6480712890626	319.2333679199219	-1157.886962890625	-432.3059997558595	285.0055541992188	-1227.923217773438	-395.5312500000001	278.6801147460938	-1201.319702148438	-392.7483520507814	196.3912353515626	-1181.568603515625	-445.9859008789064	102.5606918334961	-1235.56298828125	-407.058319091797	103.0771942138672	-1153.552124023438	-501.4261169433595	52.7661819458008	-1204.13134765625	-285.6225891113282	60.76901626586915	-1175.123413085938	-278.6067810058594	60.32603454589845	-1219.487426757813	-318.0202026367188	35.41687011718751	-1276.264404296875	-456.5661010742189	764.9127807617189	-766.3571777343751	-421.2781982421876	708.6992797851564	-756.0329589843751	-387.6004333496095	708.6143798828126	-758.2227172851564	-451.0166320800782	630.4605712890626	-767.4490966796876	-449.8265991210939	504.3491821289064	-753.5411987304689	-423.9490661621095	471.9713134765626	-866.8953857421877	-406.2652587890626	341.3422546386719	-737.3723144531251	-482.991424560547	261.0745239257813	-718.8504638671876	-435.7712402343751	262.3280029296876	-714.7478637695314	-407.6587219238282	213.3504028320313	-734.5192871093751	-452.8950500488282	94.60289764404298	-710.2413330078126	-418.6907958984376	102.4661560058594	-787.2807617187502	-502.9969177246095	49.54030990600587	-758.1135864257814	-285.1885375976563	53.50875473022462	-750.1919555664064	-286.7357177734376	58.05864715576173	-698.0508422851564	-333.0308227539063	36.65265655517579	-651.3646850585939	-4216.694824218751	853.1789550781252	-3944.672363281251	
192	0.9550000000000001	-118.1085815429688	1598.006469726563	-955.5408935546877	-288.3730468750001	1676.552124023438	-1033.254028320313	-273.1070556640626	1666.01318359375	-879.943786621094	-426.2069396972657	1532.219116210938	-971.5947265625002	-482.8574523925782	1207.743286132813	-969.0638427734377	-289.0908508300782	1448.357299804688	-966.4256591796877	-363.9987792968751	1512.21240234375	-1137.69873046875	-426.9574279785157	1380.049560546875	-1278.183837890625	-406.8777465820314	1334.668579101563	-1276.355590820313	-450.7481994628907	1329.124755859375	-1319.06640625	-462.5616455078126	1282.84228515625	-1343.207763671875	-520.7736206054689	1246.080200195313	-1281.412109375	-383.9053649902344	1087.4111328125	-1175.488891601563	-368.9711608886719	1045.722412109375	-1236.016967773438	-337.1888122558594	1066.073364257813	-1136.597900390625	-368.4365234375001	1512.375854492188	-803.4649047851565	-436.0440368652345	1373.278564453125	-641.0922851562501	-393.9021301269532	1345.203491210938	-646.4224853515626	-418.9973449707032	1314.303955078125	-604.5532836914064	-414.748504638672	1266.693115234375	-586.3491821289064	-490.004119873047	1240.868041992188	-636.6387939453126	-399.7197570800782	1065.035278320313	-748.2205200195314	-358.4506835937501	1052.267944335938	-792.9319458007815	-369.4906616210938	1023.239624023438	-691.5322875976564	-305.3020019531251	1008.101318359375	-1069.428588867188	-320.9777221679688	998.1342773437502	-853.6077880859377	-490.615936279297	1093.41796875	-971.6250000000002	-505.4773559570314	1069.152709960938	-999.5357666015627	-513.1557617187501	1068.52099609375	-946.2998657226565	-433.4155578613282	824.656921386719	-1172.956787109375	-401.5531616210939	746.3662719726564	-1178.731567382813	-354.3614807128907	746.3119506835939	-1166.317016601563	-433.2855529785157	693.9041748046876	-1175.669921875	-422.6513061523439	514.1625366210939	-1184.259033203125	-419.7724914550782	477.906463623047	-1069.539428710938	-386.6419372558595	319.2613525390626	-1157.847778320313	-432.2034606933595	284.9808959960938	-1227.911010742188	-395.5420837402345	278.6485290527344	-1201.328857421875	-392.7351379394532	196.3933410644532	-1181.573974609375	-445.9880676269532	102.5926971435547	-1235.568359375	-407.0419921875001	103.0756301879883	-1153.549682617188	-501.4365844726564	52.76732635498048	-1204.115478515625	-285.5797119140626	60.74912643432619	-1175.14111328125	-278.5830688476563	60.34982681274415	-1219.503540039063	-318.0188903808594	35.4103012084961	-1276.278198242188	-456.4471130371095	764.8786010742189	-766.3995361328126	-421.1385498046876	708.6979370117189	-756.1495971679689	-387.6456909179689	708.2055053710939	-758.7230834960939	-450.7866210937501	630.4204101562501	-767.5321044921876	-449.744110107422	504.3812561035157	-753.5173950195314	-423.919403076172	471.9747009277345	-866.950134277344	-406.173553466797	341.3440856933594	-737.4021606445314	-482.9117431640626	261.0787353515626	-718.8588867187501	-435.7204589843751	262.3274841308594	-714.7587890625001	-407.6125793457032	213.3372497558594	-734.4768066406251	-452.8777770996095	94.61106872558595	-710.2570190429689	-418.7165832519532	102.4624252319336	-787.308776855469	-502.9713745117189	49.5160369873047	-758.1510620117189	-285.1958312988282	53.57135391235353	-750.2125854492189	-286.7708129882813	58.08201217651369	-698.0338745117189	-333.0419616699219	36.63375854492188	-651.3388671875001	-4216.798828125001	853.182312011719	-3944.633544921876	
